<svg version="1.2" xmlns="http://www.w3.org/2000/svg" viewBox="0 0 367 76" width="1000" height="207">
	<title>new-svg</title>
	<defs>
		<linearGradient id="g1" x1="19.6" y1="4" x2="1131.7" y2="4" gradientUnits="userSpaceOnUse">
			<stop offset="0" stop-color="#ee2a7b"/>
			<stop offset="1" stop-color="#ff7db8"/>
		</linearGradient>
		<linearGradient id="g2" x1="7" y1="36.1" x2="3193.8" y2="36.1" gradientUnits="userSpaceOnUse">
			<stop offset="0" stop-color="#ee2a7b"/>
			<stop offset="1" stop-color="#ff7db8"/>
		</linearGradient>
	</defs>
	<style>
		.s0 { fill: url(#g1) } 
		.s1 { fill: url(#g2) } 
		.s2 { fill: #a439fa } 
	</style>
	<g id="SvgjsG5505">
		<path id="Layer" fill-rule="evenodd" class="s0" d="m19.6 20.7c0-9.2 7.4-16.7 16.6-16.7 9.2 0 16.7 7.5 16.7 16.7 0 6.5-3.8 12.2-9.3 14.9l-7.4 14.3-7.4-14.3c-5.5-2.7-9.2-8.4-9.2-14.9zm7.4 0c0 5.1 4.1 9.2 9.2 9.2 5.1 0 9.2-4.1 9.2-9.2 0-5.1-4.1-9.2-9.2-9.2-5.1 0-9.2 4.1-9.2 9.2z"/>
		<path id="Layer" class="s1" d="m63.4 60.2l-6.2-22.7c-0.2-0.8-1-1.4-1.8-1.4h-5.7q-1.7 2.2-4 3.8h8.2l5.1 18.9h-47.5l5.1-18.9h8q-2.3-1.6-4-3.8h-5.5c-0.9 0-1.6 0.6-1.9 1.4l-6.1 22.7c-0.2 0.6-0.1 1.2 0.3 1.7 0.4 0.4 0.9 0.7 1.5 0.7h52.6c0.6 0 1.2-0.3 1.6-0.7 0.3-0.5 0.4-1.1 0.3-1.7z"/>
	</g>
	<g id="SvgjsG5506">
		<path id="Layer" fill-rule="evenodd" class="s2" d="m90.3 59h-6v-11.8c0-2.6-2.1-4.6-4.7-4.6-2.5 0-4.6 2.1-4.6 4.6v11.8h-6v-22h6v1.6c1.5-1.5 3.1-2 4.6-2 2.9 0 5.6 1.1 7.6 3.1 2 2 3.1 4.7 3.1 7.5zm14 0.5c-3 0-5.9-1.2-8.1-3.4-2.1-2.2-3.3-5-3.3-8.1 0-3 1.2-5.8 3.3-8 2.2-2.2 5.1-3.4 8.1-3.4q3 0 5.4 2.2l0.3 0.2v-1.9h5.8v21.9h-5.8v-1.7l-0.3 0.2c-1.7 1.7-3.7 2-5.4 2zm0-17.2c-3 0-5.6 2.6-5.6 5.7 0 3.2 2.6 5.8 5.6 5.8 3.1 0 5.7-2.6 5.7-5.8 0-3.1-2.6-5.7-5.7-5.7zm27.8 16.7h-5.3l-8.9-21.9h6.2l5.4 13.1 5.3-13.1h6.2zm18.3 0h-6.2v-22h6.2zm-3.1-24.6c-2 0-3.7-1.6-3.7-3.6 0-1.1 0.4-2 1.1-2.6 0.7-0.8 1.6-1.1 2.6-1.1 2 0 3.7 1.6 3.7 3.7 0 2-1.7 3.6-3.7 3.6zm17.6 37.4c-2.3 0-4.6-0.6-6.4-1.8-0.9-0.4-1.7-1.2-2.1-1.5l-0.8-0.8 4.4-3.8 0.6 0.5c1.3 1 2.9 1.7 4.3 1.8 3.2-0.1 5.9-2.9 5.9-6.2v-2.8l-0.2 0.2c-1.7 1.7-3.3 1.9-5.1 2h-0.8c-3-0.1-5.6-1.2-7.7-3.2-2.1-2.3-3.3-5.1-3.3-8.1 0-3.1 1.2-5.9 3.3-8.1 2.2-2.2 5.1-3.4 8.1-3.4 2.4 0 4 0.7 5.5 2.1l0.2 0.2v-1.8h5.8v22.9c0 3.2-1.3 6.1-3.5 8.3-2.2 2.3-5.1 3.5-8.2 3.5zm0.2-29.6c-3 0-5.6 2.7-5.6 5.9 0 3.1 2.6 5.7 5.6 5.7 3.1 0 5.7-2.6 5.7-5.7 0-3.2-2.6-5.9-5.7-5.9zm25.8 17.3c-3 0-5.9-1.2-8.1-3.3-2.1-2.3-3.3-5.1-3.3-8.1 0-3.1 1.2-5.9 3.3-8.1 2.2-2.2 5.1-3.4 8.1-3.4q3 0 5.4 2.2l0.3 0.2v-1.9h5.8v21.9h-5.8v-1.7l-0.3 0.2c-1.7 1.7-3.7 2-5.4 2zm0-17.2c-3 0-5.6 2.6-5.6 5.8 0 3.1 2.6 5.7 5.6 5.7 3.1 0 5.7-2.6 5.7-5.7 0-3.2-2.6-5.8-5.7-5.8zm31.2 16.7h-5.7c-2.1 0-4.1-0.8-5.5-2.2-1.5-1.5-2.3-3.4-2.3-5.5v-9.1h-3.1v-5h3.1v-8.6h5.7v8.6h6.4v5h-6.4v9c0 1.2 1.1 2.3 2.1 2.3h4.2zm11.2 0.5c-1.4 0-2.8-0.3-4.2-1-1.2-0.5-2.4-1.4-3.4-2.5-1.7-1.8-2.7-4.2-3-6.7 0-0.4 0-0.8 0-1.3 0-1 0.1-2 0.3-3 0.5-1.9 1.4-3.7 2.7-5 0.9-1.1 2-1.9 3.4-2.6 1.3-0.6 2.8-0.9 4.2-0.9 1.6 0 3 0.3 4.3 0.9q2.1 1.1 3.4 2.6c1.3 1.3 2.2 3.1 2.7 5 0.2 0.9 0.3 1.9 0.3 3v1.1h-16.1l0.1 0.3c0.6 3 2.8 5.2 5.3 5.2h0.1c1.4-0.1 2.9-1 3.8-1.8l0.5-0.4 4 3.5-0.7 0.6c-0.5 0.5-1.2 1-1.9 1.4h-0.1c-1.7 1-3.6 1.5-5.7 1.6zm0-18c-1.8 0-3.7 1.3-4.7 3.3l-0.2 0.4h9.9l-0.2-0.4c-1.1-2-2.9-3.3-4.8-3.3zm34.7 17.5h-6.1v-11.8c0-2.6-2-4.6-4.6-4.6-2.5 0-4.6 2.1-4.6 4.6v11.8h-6v-22h6v1.6c1.4-1.5 3-2 4.6-2 2.9 0 5.6 1.1 7.6 3.1 2 2 3.1 4.7 3.1 7.5zm13.4 0.6c-1.4 0-2.9-0.4-4.2-1-1.3-0.5-2.4-1.4-3.5-2.5-1.6-1.8-2.6-4.2-2.9-6.7 0-0.4-0.1-0.9-0.1-1.3 0-1 0.2-2 0.4-3 0.4-1.9 1.3-3.7 2.6-5.1 1-1 2.1-1.8 3.5-2.5 1.3-0.6 2.7-0.9 4.2-0.9 1.5 0 2.9 0.3 4.2 0.9q2.2 1 3.5 2.5c1.2 1.4 2.2 3.1 2.7 5.1 0.2 0.9 0.3 1.8 0.3 3v1.1h-16.1v0.3c0.7 3 2.9 5.1 5.4 5.1 1.4-0.1 3-0.9 3.9-1.7l0.5-0.4 4 3.4-0.7 0.6c-0.6 0.5-1.2 1.1-1.9 1.5h-0.1c-1.7 1-3.6 1.5-5.7 1.6zm0-18c-1.9 0-3.7 1.3-4.7 3.3l-0.2 0.4h9.9l-0.2-0.4c-1.1-2.1-2.9-3.3-4.8-3.3zm37 17.4h-7.6l-5.9-7.1-5.8 7.1h-7.7l9.8-11.5-8.8-10.4h7.6l4.9 5.9 4.9-5.9h7.6l-8.7 10.4zm13 0.5c-2.8 0-5.4-1-7.3-2.9-1.9-1.8-3-4.4-3-7.1v-12.5h6v12.5c0 2.2 1.9 4.1 4.3 4.1 2.3 0 4.2-1.9 4.2-4.1v-12.5h6.1v12.5c0 2.7-1.1 5.2-3.1 7.1-1.9 1.9-4.5 2.9-7.2 2.9zm22.9-0.3c-0.7 0-1.4-0.1-2.2-0.3-2.4-0.5-4.7-1.5-6.5-3.1l-0.7-0.6 3.6-3.9 0.7 0.6c2.1 1.8 3.8 2.1 4.9 2.1 0.8 0 1.4-0.1 2-0.4q1-0.4 1-1.4c0-0.6-0.3-1.3-3.1-1.8-2.6-0.5-4.2-1.1-5-1.5q-1.5-0.9-2.4-2.3-0.9-1.4-0.9-3.2 0-1.9 1.2-3.5c0.6-1 1.5-1.7 2.9-2.3 1.1-0.6 2.3-0.8 3.8-0.8 0.5 0 1 0 1.5 0.1 2.1 0.3 4.2 1.2 6 2.6l0.7 0.5-3.4 4-0.7-0.6c-1.7-1.3-3.1-1.5-4-1.5q-0.9 0-1.7 0.3c-0.6 0.3-1 0.9-1 1.2 0 0.7 0.5 1.2 3 1.7 3.3 0.8 4.3 1.2 5 1.5 1.3 0.7 1.9 1.4 2.4 2 0.7 1 1.1 2.2 1.1 3.6 0 1.4-0.4 2.6-1.2 3.6-0.7 1-1.6 1.9-3 2.6-1.1 0.5-2.6 0.8-4 0.8z"/>
	</g>
</svg>