<svg width="3000" height="1000" viewBox="0 0 374.5483870967742 54.61667460566438" class="css-1j8o68f">
 <defs id="SvgjsDefs5504">
  <linearGradient id="SvgjsLinearGradient5509">
   <stop id="SvgjsStop5510" stop-color="#ee2a7b" offset="0"></stop>
   <stop id="SvgjsStop5511" stop-color="#ff7db8" offset="1"></stop>
  </linearGradient>
 </defs>
 <g id="SvgjsG5505" featurekey="nRdZyp-0" transform="matrix(0.6272370594196037,0,0,0.6272370594196037,-3.135859289066761,-4.0538291144019025)" fill="url(#SvgjsLinearGradient5509)">
  <path xmlns="http://www.w3.org/2000/svg" d="M38.235,56.884l11.763,22.731l11.76-22.731c8.783-4.34,14.826-13.386,14.826-23.839c0-14.682-11.903-26.582-26.586-26.582  c-14.683,0-26.583,11.899-26.583,26.582C23.415,43.498,29.457,52.544,38.235,56.884z M49.998,18.343c8.117,0,14.7,6.583,14.7,14.702  c0,8.119-6.583,14.698-14.7,14.698c-8.119,0-14.699-6.579-14.699-14.698C35.299,24.925,41.879,18.343,49.998,18.343z">
  </path>
  <path xmlns="http://www.w3.org/2000/svg" d="M94.891,89.656l-9.832-36.174c-0.363-1.339-1.58-2.271-2.969-2.271h-9.063c-1.809,2.362-3.958,4.44-6.396,6.154h13.105  l8.161,30.018H12.101l8.159-30.018h12.806c-2.436-1.714-4.588-3.792-6.398-6.154h-8.759c-1.388,0-2.604,0.929-2.969,2.271  L5.107,89.656C4.856,90.58,5.05,91.57,5.631,92.33c0.582,0.762,1.487,1.208,2.445,1.208h83.845c0.959,0,1.863-0.446,2.446-1.208  C94.951,91.57,95.144,90.578,94.891,89.656z">
  </path>
 </g>
 <g id="SvgjsG5506" featurekey="Q4qmbg-0" transform="matrix(2.3962009884085593,0,0,2.3962009884085593,78.50794992086524,-10.95869821716975)" fill="#a439fa">
  <path d="M9.94 20 l-2.52 0 l0 -4.9 c0 -1.08 -0.86 -1.92 -1.94 -1.92 c-1.04 0 -1.94 0.86 -1.94 1.92 l0 4.9 l-2.5 0 l0 -9.16 l2.5 0 l0 0.66 c0.62 -0.62 1.28 -0.84 1.94 -0.84 c1.2 0 2.32 0.46 3.16 1.28 c0.84 0.86 1.3 1.98 1.3 3.16 l0 4.9 z M15.7788125 20.18 c-1.26 0 -2.46 -0.48 -3.38 -1.38 c-0.9 -0.92 -1.4 -2.12 -1.4 -3.38 s0.5 -2.46 1.4 -3.38 c0.9 -0.9 2.1 -1.38 3.38 -1.38 c0.84 0 1.6 0.3 2.26 0.9 l0.1 0.08 l0 -0.8 l2.42 0 l0 9.16 l-2.42 0 l0 -0.72 l-0.1 0.1 c-0.72 0.7 -1.54 0.8 -2.26 0.8 z M15.7788125 13 c-1.28 0 -2.36 1.12 -2.36 2.42 c0 1.32 1.08 2.42 2.36 2.42 s2.36 -1.1 2.36 -2.42 c0 -1.3 -1.08 -2.42 -2.36 -2.42 z M27.377625000000002 20 l-2.2 0 l-3.72 -9.16 l2.58 0 l2.24 5.48 l2.22 -5.48 l2.6 0 z M35.016437499999995 20 l-2.6 0 l0 -9.16 l2.6 0 l0 9.16 z M33.7164375 9.74 c-0.86 0 -1.56 -0.7 -1.56 -1.54 c0 -0.42 0.16 -0.8 0.46 -1.08 c0.3 -0.3 0.68 -0.46 1.1 -0.46 c0.84 0 1.54 0.7 1.54 1.54 s-0.7 1.54 -1.54 1.54 z M41.03525 25.32 c-0.96 0 -1.88 -0.24 -2.64 -0.72 l0 0 c-0.38 -0.2 -0.72 -0.52 -0.88 -0.66 l-0.32 -0.32 l1.8 -1.58 l0.26 0.22 c0.54 0.4 1.22 0.68 1.78 0.72 l0 0 l0 0 c1.36 -0.02 2.48 -1.18 2.48 -2.58 l0 -1.16 l-0.1 0.1 c-0.7 0.68 -1.36 0.78 -2.1 0.82 l-0.34 0 c-1.24 -0.04 -2.34 -0.5 -3.2 -1.36 c-0.9 -0.92 -1.4 -2.12 -1.4 -3.38 s0.5 -2.46 1.4 -3.38 c0.92 -0.9 2.12 -1.38 3.38 -1.38 c0.98 0 1.66 0.26 2.26 0.86 l0.1 0.08 l0 -0.76 l2.42 0 l0 9.58 c0 1.32 -0.52 2.54 -1.46 3.46 c-0.9 0.94 -2.12 1.44 -3.44 1.44 z M41.155249999999995 12.98 c-1.28 0 -2.36 1.12 -2.36 2.44 s1.08 2.42 2.36 2.42 s2.36 -1.1 2.36 -2.42 s-1.08 -2.44 -2.36 -2.44 z M51.91406249999999 20.18 c-1.26 0 -2.46 -0.48 -3.38 -1.38 c-0.9 -0.92 -1.4 -2.12 -1.4 -3.38 s0.5 -2.46 1.4 -3.38 c0.9 -0.9 2.1 -1.38 3.38 -1.38 c0.84 0 1.6 0.3 2.26 0.9 l0.1 0.08 l0 -0.8 l2.42 0 l0 9.16 l-2.42 0 l0 -0.72 l-0.1 0.1 c-0.72 0.7 -1.54 0.8 -2.26 0.8 z M51.91406249999999 13 c-1.28 0 -2.36 1.12 -2.36 2.42 c0 1.32 1.08 2.42 2.36 2.42 s2.36 -1.1 2.36 -2.42 c0 -1.3 -1.08 -2.42 -2.36 -2.42 z M64.932875 20 l-2.4 0 c-0.88 0 -1.7 -0.34 -2.3 -0.94 c-0.62 -0.62 -0.94 -1.42 -0.94 -2.3 l0 -3.8 l-1.28 0 l0 -2.06 l1.28 0 l0 -3.6 l2.38 0 l0 3.6 l2.66 0 l0 2.06 l-2.66 0 l0 3.76 c0 0.5 0.44 0.96 0.88 0.96 l1.74 0 z M69.6316875 20.22 l-0.02 0 c-0.58 0 -1.18 -0.14 -1.74 -0.4 c-0.52 -0.22 -1 -0.58 -1.44 -1.04 c-0.7 -0.76 -1.12 -1.76 -1.22 -2.8 c-0.02 -0.18 -0.04 -0.36 -0.04 -0.56 c0 -0.4 0.06 -0.82 0.16 -1.24 c0.18 -0.8 0.56 -1.54 1.1 -2.1 c0.4 -0.44 0.86 -0.78 1.44 -1.06 c0.54 -0.26 1.14 -0.38 1.76 -0.38 c0.64 0 1.22 0.12 1.76 0.38 c0.6 0.28 1.08 0.64 1.44 1.06 c0.52 0.56 0.92 1.28 1.12 2.1 c0.1 0.38 0.14 0.78 0.14 1.24 l0 0.46 l-6.72 0 l0.02 0.14 c0.26 1.24 1.2 2.14 2.24 2.14 l0.02 0 c0.58 -0.04 1.22 -0.4 1.6 -0.72 l0.22 -0.18 l1.66 1.44 l-0.3 0.26 c-0.22 0.2 -0.5 0.44 -0.8 0.6 l-0.02 0 c-0.72 0.42 -1.5 0.64 -2.38 0.66 z M69.6316875 12.719999999999999 c-0.78 0 -1.56 0.54 -1.98 1.38 l-0.08 0.16 l4.14 0 l-0.08 -0.16 c-0.46 -0.86 -1.22 -1.38 -2 -1.38 z M84.09049999999999 20 l-2.52 0 l0 -4.9 c0 -1.08 -0.86 -1.92 -1.94 -1.92 c-1.04 0 -1.94 0.86 -1.94 1.92 l0 4.9 l-2.5 0 l0 -9.16 l2.5 0 l0 0.66 c0.62 -0.62 1.28 -0.84 1.94 -0.84 c1.2 0 2.32 0.46 3.16 1.28 c0.84 0.86 1.3 1.98 1.3 3.16 l0 4.9 z M89.6893125 20.22 l-0.02 0 c-0.58 0 -1.18 -0.14 -1.74 -0.4 c-0.52 -0.22 -1 -0.58 -1.44 -1.04 c-0.7 -0.76 -1.12 -1.76 -1.22 -2.8 c-0.02 -0.18 -0.04 -0.36 -0.04 -0.56 c0 -0.4 0.06 -0.82 0.16 -1.24 c0.18 -0.8 0.56 -1.54 1.1 -2.1 c0.4 -0.44 0.86 -0.78 1.44 -1.06 c0.54 -0.26 1.14 -0.38 1.76 -0.38 c0.64 0 1.22 0.12 1.76 0.38 c0.6 0.28 1.08 0.64 1.44 1.06 c0.52 0.56 0.92 1.28 1.12 2.1 c0.1 0.38 0.14 0.78 0.14 1.24 l0 0.46 l-6.72 0 l0.02 0.14 c0.26 1.24 1.2 2.14 2.24 2.14 l0.02 0 c0.58 -0.04 1.22 -0.4 1.6 -0.72 l0.22 -0.18 l1.66 1.44 l-0.3 0.26 c-0.22 0.2 -0.5 0.44 -0.8 0.6 l-0.02 0 c-0.72 0.42 -1.5 0.64 -2.38 0.66 z M89.6893125 12.719999999999999 c-0.78 0 -1.56 0.54 -1.98 1.38 l-0.08 0.16 l4.14 0 l-0.08 -0.16 c-0.46 -0.86 -1.22 -1.38 -2 -1.38 z M105.148125 20 l-3.18 0 l-2.46 -2.96 l-2.44 2.96 l-3.2 0 l4.1 -4.82 l-3.7 -4.34 l3.2 0 l2.04 2.46 l2.04 -2.46 l3.18 0 l-3.66 4.34 z M110.56693750000001 20.22 c-1.16 0 -2.24 -0.42 -3.02 -1.2 c-0.82 -0.78 -1.26 -1.84 -1.26 -2.98 l0 -5.2 l2.52 0 l0 5.2 c0 0.94 0.78 1.7 1.76 1.7 s1.78 -0.76 1.78 -1.7 l0 -5.2 l2.52 0 l0 5.2 c0 1.12 -0.46 2.18 -1.28 2.98 c-0.8 0.78 -1.86 1.2 -3.02 1.2 z M120.14574999999999 20.08 c-0.28 0 -0.58 -0.04 -0.94 -0.1 c-1 -0.2 -1.94 -0.64 -2.68 -1.3 l-0.3 -0.24 l1.5 -1.66 l0.28 0.26 c0.88 0.74 1.6 0.88 2.06 0.88 c0.34 0 0.58 -0.04 0.82 -0.16 c0.3 -0.12 0.44 -0.32 0.44 -0.6 c0 -0.24 -0.14 -0.54 -1.32 -0.74 c-1.08 -0.22 -1.76 -0.44 -2.08 -0.62 c-0.42 -0.24 -0.76 -0.56 -1 -0.96 s-0.36 -0.84 -0.36 -1.34 c0 -0.52 0.16 -1.02 0.48 -1.48 c0.26 -0.38 0.64 -0.68 1.2 -0.96 c0.46 -0.22 0.98 -0.32 1.6 -0.32 c0.22 0 0.44 0.02 0.64 0.04 c0.88 0.14 1.76 0.52 2.48 1.08 l0.3 0.24 l-1.42 1.64 l-0.28 -0.22 c-0.7 -0.56 -1.3 -0.66 -1.66 -0.66 c-0.26 0 -0.5 0.04 -0.72 0.14 c-0.26 0.14 -0.4 0.36 -0.4 0.5 c0 0.28 0.2 0.48 1.24 0.72 c1.36 0.32 1.8 0.48 2.08 0.6 c0.56 0.32 0.8 0.58 1 0.84 c0.3 0.42 0.44 0.94 0.44 1.5 c0 0.58 -0.16 1.1 -0.46 1.52 s-0.7 0.78 -1.28 1.06 c-0.46 0.22 -1.06 0.34 -1.66 0.34 z"></path>
 </g>
</svg>